<?xml version="1.0" encoding="utf-8"?>
<!-- Generator: Adobe Illustrator 24.1.2, SVG Export Plug-In . SVG Version: 6.00 Build 0)  -->
<svg version="1.1" id="Layer_1" xmlns="http://www.w3.org/2000/svg" xmlns:xlink="http://www.w3.org/1999/xlink" x="0px" y="0px"
	 viewBox="0 0 40 40" style="enable-background:new 0 0 40 40;" xml:space="preserve">
<style type="text/css">
	.st0{fill:#F4F4FD;}
</style>
<path class="st0" d="M33.8,5c0.7-0.6,1.6-1,2.5-1c2,0,3.6,1.6,3.7,3.6v0.1c0,1-0.4,1.8-1,2.5L19.5,34.8c-0.7,0.7-1.6,1.2-2.7,1.2
	c-0.5,0-1-0.1-1.4-0.3c-0.5-0.2-0.9-0.5-1.2-0.8l-13-13.1C0.4,21.2,0,20.2,0,19.2c0-0.5,0.1-1,0.3-1.4c0.6-1.4,1.9-2.3,3.4-2.3h0.1
	c1,0,2,0.5,2.6,1.2L16.6,27l17-21.8C33.7,5.1,33.8,5.1,33.8,5z"/>
</svg>
